<?xml version="1.0" standalone="no"?><!DOCTYPE svg PUBLIC "-//W3C//DTD SVG 1.1//EN" "http://www.w3.org/Graphics/SVG/1.1/DTD/svg11.dtd"><svg t="1682478783682" class="icon" viewBox="0 0 1024 1024" version="1.1" xmlns="http://www.w3.org/2000/svg" p-id="3415" xmlns:xlink="http://www.w3.org/1999/xlink" width="200" height="200"><path d="M877.504 509.504a32 32 0 0 1-28.288 31.776l-3.712 0.224h-672a32 32 0 0 1-3.744-63.808l3.744-0.192h672a32 32 0 0 1 32 32z m-4.352-22.656a32 32 0 0 1 2.464 42.464l-2.464 2.816-277.024 277.024a32 32 0 0 1-47.744-42.464l2.464-2.816 254.4-254.4-254.4-254.4a32 32 0 0 1-2.464-42.432l2.464-2.784a32 32 0 0 1 42.464-2.496l2.816 2.496 277.024 276.992z" fill="#515151" p-id="3416"></path></svg>