<?xml version="1.0" standalone="no"?><!DOCTYPE svg PUBLIC "-//W3C//DTD SVG 1.1//EN" "http://www.w3.org/Graphics/SVG/1.1/DTD/svg11.dtd"><svg t="1682478764696" class="icon" viewBox="0 0 1024 1024" version="1.1" xmlns="http://www.w3.org/2000/svg" p-id="2735" xmlns:xlink="http://www.w3.org/1999/xlink" width="200" height="200"><path d="M512 874.976a32 32 0 0 1-31.776-28.256L480 842.976v-672a32 32 0 0 1 63.776-3.712l0.224 3.712v672a32 32 0 0 1-32 32z m22.624-4.352a32 32 0 0 1-42.464 2.496l-2.784-2.496-277.024-277.024a32 32 0 0 1 42.464-47.744l2.784 2.496 254.4 254.4 254.4-254.4a32 32 0 0 1 42.464-2.496l2.784 2.496a32 32 0 0 1 2.496 42.464l-2.496 2.784-277.024 277.024z" fill="#515151" p-id="2736"></path></svg>